<svg xmlns="http://www.w3.org/2000/svg" fill="none" viewBox="0 0 128 128"><g id="extreme-sleet__extreme-sleet" clip-path="url(#extreme-sleet__clip0_2045_39737)"><g id="extreme-sleet__Sky"><g id="extreme-sleet__Clouds" clip-path="url(#extreme-sleet__clip1_2045_39737)"><g id="extreme-sleet__Mask group"><mask id="extreme-sleet__mask0_2045_39737" width="128" height="128" x="0" y="0" maskUnits="userSpaceOnUse" style="mask-type:alpha"><g id="extreme-sleet__Cloud Mask"><path id="extreme-sleet__Subtract" fill="#000" fill-rule="evenodd" d="M128 0H0v128h128zM37.952 93h53.023c9.252 0 17.023-7.647 17.023-16.972 0-8.006-5.693-14.678-13.073-16.477.437-9.65-5.25-18.942-14.374-22.759-9.444-3.95-20.485-1.18-27.02 6.446-4.96-1.642-10.55-.942-14.957 2.053-4.428 3.009-7.143 7.99-7.39 13.247-7.12 2.925-11.856 10.313-11.106 18.246.864 9.145 8.75 16.218 17.874 16.216" clip-rule="evenodd"/></g></mask><g mask="url(#extreme-sleet__mask0_2045_39737)"><g id="extreme-sleet__Secondary Cloud"><path id="extreme-sleet__Cloud" fill="#b0bccd" d="M101.194 55.562c1.173-4.512-1.434-9.14-5.69-10.849-4.312-1.732-9.543-.239-12.085 3.71-2.154-1.243-4.923-1.173-7.007.186-2.031 1.325-3.169 3.763-2.737 6.17-3.375.612-5.988 3.69-5.644 7.177.344 3.495 3.508 6.045 6.946 6.044 8.836 0 17.674-.007 26.511 0 3.423 0 6.512-2.715 6.512-6.226 0-3.631-3.279-6.36-6.806-6.212"/><animateTransform attributeName="transform" begin="0s" calcMode="spline" dur="3s" keySplines=".42 0 .58 1; .42 0 .58 1" repeatCount="indefinite" type="translate" values="0 -3;0 0;0 -3"/></g></g><animateTransform attributeName="transform" begin="0s" calcMode="spline" dur="3s" keySplines=".42 0 .58 1; .42 0 .58 1" repeatCount="indefinite" type="translate" values="0 0;0 -3;0 0"/></g><g id="extreme-sleet__Cloud_2"><path id="extreme-sleet__Cloud_3" fill="#7c8ca2" d="M90.389 63.086c2.295-9.204-2.648-18.95-11.38-22.604-8.744-3.658-19.181-.344-24.172 7.73-4.3-2.587-9.862-2.434-14.013.387-4.14 2.814-6.324 7.915-5.474 12.855-6.957 1.315-11.957 7.885-11.289 14.954S30.871 89.002 37.953 89h53.024C98.045 89 104 83.119 104 76.028c0-7.327-6.323-13.26-13.611-12.942"/><animateTransform attributeName="transform" begin="0s" calcMode="spline" dur="3s" keySplines=".42 0 .58 1; .42 0 .58 1" repeatCount="indefinite" type="translate" values="0 0;0 -3;0 0"/></g></g></g><g id="extreme-sleet__Precipitation"><g id="extreme-sleet__Snowflakes"><path id="extreme-sleet__Snowflake 1" fill="#86c3db" d="m52.578 90.366-1.205-.689a2.9 2.9 0 0 0-.002-1.353l1.207-.69a.83.83 0 0 0 .309-1.141.85.85 0 0 0-1.153-.306l-1.206.69a2.9 2.9 0 0 0-1.184-.677v-1.38A.85.85 0 0 0 48.5 84a.843.843 0 0 0-.844.82v1.38a2.96 2.96 0 0 0-1.185.674l-1.205-.689a.848.848 0 0 0-1.259.616.83.83 0 0 0 .415.832l1.204.689c-.106.445-.105.909.003 1.353l-1.207.69a.83.83 0 0 0-.415.832.83.83 0 0 0 .62.7.85.85 0 0 0 .64-.084l1.205-.69c.334.318.74.55 1.184.675v1.382a.85.85 0 0 0 .844.82.843.843 0 0 0 .844-.82v-1.383c.441-.129.847-.36 1.184-.673l1.206.69a.847.847 0 0 0 1.259-.616.83.83 0 0 0-.415-.832m-4.712-.28a1.24 1.24 0 0 1-.622-1.25 1.25 1.25 0 0 1 .93-1.048 1.27 1.27 0 0 1 1.329.445 1.25 1.25 0 0 1 .093 1.393 1.28 1.28 0 0 1-1.73.46"><animateTransform attributeName="transform" begin="-0.8s" calcMode="spline" dur="1s" keySplines=".42 0 1 1" repeatCount="indefinite" type="translate" values="0 0;0 20"/><animate attributeName="opacity" begin="-0.8s" dur="1s" keyTimes="0;0.15;0.85;1" repeatCount="indefinite" values="0;1;1;0"/></path><path id="extreme-sleet__Snowflake 2" fill="#86c3db" d="m67.578 90.366-1.204-.689a2.9 2.9 0 0 0-.003-1.353l1.207-.69a.83.83 0 0 0 .309-1.141.85.85 0 0 0-1.153-.306l-1.206.69a2.9 2.9 0 0 0-1.184-.677v-1.38A.85.85 0 0 0 63.5 84a.843.843 0 0 0-.844.82v1.38a2.96 2.96 0 0 0-1.185.674l-1.205-.689a.848.848 0 0 0-1.259.616.83.83 0 0 0 .415.832l1.204.689c-.106.445-.105.909.003 1.353l-1.207.69a.83.83 0 0 0-.415.832.83.83 0 0 0 .62.7.85.85 0 0 0 .64-.084l1.205-.69c.334.318.74.55 1.184.675v1.382a.85.85 0 0 0 .844.82.843.843 0 0 0 .844-.82v-1.383c.441-.129.847-.36 1.184-.673l1.206.69a.847.847 0 0 0 1.259-.616.83.83 0 0 0-.415-.832m-4.712-.28a1.24 1.24 0 0 1-.622-1.25 1.25 1.25 0 0 1 .93-1.048 1.27 1.27 0 0 1 1.329.445 1.25 1.25 0 0 1 .093 1.393 1.28 1.28 0 0 1-1.73.46"><animateTransform attributeName="transform" begin="-0.30000000000000004s" calcMode="spline" dur="1s" keySplines=".42 0 1 1" repeatCount="indefinite" type="translate" values="0 0;0 20"/><animate attributeName="opacity" begin="-0.30000000000000004s" dur="1s" keyTimes="0;0.15;0.85;1" repeatCount="indefinite" values="0;1;1;0"/></path><path id="extreme-sleet__Snowflake 3" fill="#86c3db" d="m82.578 90.366-1.204-.689a2.9 2.9 0 0 0-.003-1.353l1.207-.69a.83.83 0 0 0 .309-1.141.85.85 0 0 0-1.153-.306l-1.206.69a2.9 2.9 0 0 0-1.184-.677v-1.38A.85.85 0 0 0 78.5 84a.843.843 0 0 0-.844.82v1.38a2.96 2.96 0 0 0-1.185.674l-1.205-.689a.848.848 0 0 0-1.259.616.83.83 0 0 0 .415.832l1.204.689c-.106.445-.105.909.003 1.353l-1.207.69a.83.83 0 0 0-.415.832.83.83 0 0 0 .62.7.85.85 0 0 0 .64-.084l1.205-.69c.334.318.74.55 1.184.675v1.382a.85.85 0 0 0 .844.82.843.843 0 0 0 .844-.82v-1.383c.441-.129.847-.36 1.184-.673l1.206.69a.847.847 0 0 0 1.259-.616.83.83 0 0 0-.415-.832m-4.712-.28a1.24 1.24 0 0 1-.622-1.25 1.25 1.25 0 0 1 .93-1.048 1.27 1.27 0 0 1 1.329.445 1.25 1.25 0 0 1 .093 1.393 1.28 1.28 0 0 1-1.73.46"><animateTransform attributeName="transform" begin="-0.8s" calcMode="spline" dur="1s" keySplines=".42 0 1 1" repeatCount="indefinite" type="translate" values="0 0;0 20"/><animate attributeName="opacity" begin="-0.8s" dur="1s" keyTimes="0;0.15;0.85;1" repeatCount="indefinite" values="0;1;1;0"/></path></g><g id="extreme-sleet__Raindrops"><path id="extreme-sleet__Raindrop 1" stroke="#0a5ad4" stroke-linecap="round" stroke-width="4" d="M52 88v3"><animateTransform attributeName="transform" begin="0s" calcMode="spline" dur="1s" keySplines=".42 0 1 1" repeatCount="indefinite" type="translate" values="0 0;0 20"/><animate attributeName="opacity" begin="0s" dur="1s" keyTimes="0;0.15;0.85;1" repeatCount="indefinite" values="0;1;1;0"/></path><path id="extreme-sleet__Raindrop 2" stroke="#0a5ad4" stroke-linecap="round" stroke-width="4" d="M64 88v3"><animateTransform attributeName="transform" begin="-0.6s" calcMode="spline" dur="1s" keySplines=".42 0 1 1" repeatCount="indefinite" type="translate" values="0 0;0 20"/><animate attributeName="opacity" begin="-0.6s" dur="1s" keyTimes="0;0.15;0.85;1" repeatCount="indefinite" values="0;1;1;0"/></path><path id="extreme-sleet__Raindrop 3" stroke="#0a5ad4" stroke-linecap="round" stroke-width="4" d="M76 88v3"><animateTransform attributeName="transform" begin="-0.19999999999999996s" calcMode="spline" dur="1s" keySplines=".42 0 1 1" repeatCount="indefinite" type="translate" values="0 0;0 20"/><animate attributeName="opacity" begin="-0.19999999999999996s" dur="1s" keyTimes="0;0.15;0.85;1" repeatCount="indefinite" values="0;1;1;0"/></path></g></g></g><defs><clipPath id="extreme-sleet__clip0_2045_39737"><rect width="128" height="128" fill="#fff"/></clipPath><clipPath id="extreme-sleet__clip1_2045_39737"><rect width="128" height="128" fill="#fff"/></clipPath></defs></svg>