<svg xmlns="http://www.w3.org/2000/svg" fill="none" viewBox="0 0 128 128"><g id="mostly-clear-day__mostly-clear-day" clip-path="url(#mostly-clear-day__clip0_2045_39583)"><g id="mostly-clear-day__Sky"><g id="mostly-clear-day__Mask group"><mask id="mostly-clear-day__mask0_2045_39583" width="128" height="128" x="0" y="0" maskUnits="userSpaceOnUse" style="mask-type:alpha"><g id="mostly-clear-day__Cloud Mask"><path id="mostly-clear-day__Subtract" fill="#000" fill-rule="evenodd" d="M128 0H0v128h128zM45.766 92.974c-7.245.001-13.071-5.775-13.708-12.694-.53-5.778 2.63-11.44 7.82-13.954.369-3.815 2.353-7.427 5.607-9.7 3.166-2.212 7.143-2.852 10.78-1.879 4.907-5.343 12.857-7.351 19.82-4.357 6.702 2.883 10.74 9.6 10.776 16.563 5.349 1.754 9.138 6.927 9.138 12.688 0 7.058-5.713 13.333-13.117 13.333h-.003c-8.245-.008-16.489-.005-24.734-.003h-.005q-6.185.003-12.373.003z" clip-rule="evenodd"/><animateTransform attributeName="transform" begin="0s" calcMode="spline" dur="3s" keySplines=".42 0 .58 1; .42 0 .58 1" repeatCount="indefinite" type="translate" values="0 0;0 -3;0 0"/></g></mask><g mask="url(#mostly-clear-day__mask0_2045_39583)"><g id="mostly-clear-day__Sun"><circle id="mostly-clear-day__Core" cx="50" cy="62" r="13" fill="#f8af18"/><g id="mostly-clear-day__Rays"><path fill="#f8af18" d="M48 32a2 2 0 1 1 4 0v9.333a2 2 0 1 1-4 0zM69.799 39.373a2 2 0 1 1 2.828 2.828l-6.6 6.6a2 2 0 0 1-2.828-2.829zM80 60a2 2 0 1 1 0 4h-9.333a2 2 0 1 1 0-4zM72.627 81.799a2 2 0 1 1-2.828 2.828l-6.6-6.6a2 2 0 0 1 2.829-2.828zM48 82.667a2 2 0 1 1 4 0V92a2 2 0 1 1-4 0zM33.972 75.2a2 2 0 0 1 2.829 2.828l-6.6 6.6a2 2 0 1 1-2.828-2.829zM29.333 60a2 2 0 1 1 0 4H20a2 2 0 1 1 0-4zM36.8 45.972a2 2 0 0 1-2.828 2.829l-6.6-6.6a2 2 0 1 1 2.829-2.828z"/><animateTransform attributeName="transform" begin="0s" dur="6s" repeatCount="indefinite" type="rotate" values="0 50.0 62.0;360 50.0 62.0"/></g></g></g></g><g id="mostly-clear-day__Clouds"><g id="mostly-clear-day__Cloud"><path id="mostly-clear-day__Cloud_2" fill="#e6effc" d="M82.472 70.34c1.584-6.531-1.749-13.599-7.966-16.274-6.18-2.66-13.473-.17-16.92 5.565-3.008-1.86-6.911-1.746-9.81.28-2.935 2.051-4.42 5.734-3.831 9.255-4.97.966-8.36 5.774-7.902 10.767.458 4.986 4.666 9.068 9.724 9.067 12.37 0 24.745-.011 37.117 0C87.94 89 92 84.654 92 79.66c0-5.157-4.311-9.553-9.528-9.32"/></g><animateTransform attributeName="transform" begin="0s" calcMode="spline" dur="3s" keySplines=".42 0 .58 1; .42 0 .58 1" repeatCount="indefinite" type="translate" values="0 0;0 -3;0 0"/></g></g></g><defs><clipPath id="mostly-clear-day__clip0_2045_39583"><rect width="128" height="128" fill="#fff"/></clipPath></defs></svg>