<svg xmlns="http://www.w3.org/2000/svg" fill="none" viewBox="0 0 128 128"><g id="sunrise__sunrise" clip-path="url(#sunrise__clip0_1858_7873)"><g id="sunrise__Horizon"><path id="sunrise__Horizon Rise" stroke="#202939" stroke-linecap="round" stroke-width="4" d="M37 92h16.746a6 6 0 0 0 3.95-1.484l4.329-3.787a3 3 0 0 1 3.95 0l4.328 3.787A6 6 0 0 0 74.254 92H91"/></g><g id="sunrise__Mask group"><mask id="sunrise__mask0_1858_7873" width="128" height="77" x="0" y="9" maskUnits="userSpaceOnUse" style="mask-type:alpha"><path id="sunrise__Mask" fill="#000" d="M0 9h128v77H75.052a3 3 0 0 1-1.874-.657l-5.43-4.344a6 6 0 0 0-7.496 0l-5.43 4.344a3 3 0 0 1-1.874.657H0z"/></mask><g mask="url(#sunrise__mask0_1858_7873)"><g id="sunrise__Sun"><circle id="sunrise__Core" cx="64" cy="82" r="19.5" fill="url(#sunrise__paint0_linear_1858_7873)" stroke="#f8af18"/><g id="sunrise__Rays"><path fill="#f8af18" d="M61 37a3 3 0 1 1 6 0v14a3 3 0 0 1-6 0zM93.699 48.059a3 3 0 1 1 4.242 4.243l-9.9 9.899a3 3 0 1 1-4.242-4.243zM109 79a3 3 0 1 1 0 6H95a3 3 0 1 1 0-6zM97.941 111.698a3 3 0 0 1-4.243 4.243l-9.899-9.899a3 3 0 0 1 4.243-4.243zM61 113a3 3 0 1 1 6 0v14a3 3 0 1 1-6 0zM39.958 101.799a3 3 0 1 1 4.243 4.243l-9.9 9.899a3 3 0 1 1-4.242-4.243zM33 79a3 3 0 1 1 0 6H19a3 3 0 0 1 0-6zM44.201 57.958a3 3 0 1 1-4.243 4.243l-9.9-9.9a3 3 0 1 1 4.243-4.242z"/><animateTransform attributeName="transform" begin="0s" dur="6s" repeatCount="indefinite" type="rotate" values="0 64.0 82.0;360 64.0 82.0"/></g></g></g></g></g><defs><linearGradient id="sunrise__paint0_linear_1858_7873" x1="64" x2="64" y1="62" y2="102" gradientUnits="userSpaceOnUse"><stop stop-color="#fbbf24"/><stop offset="1" stop-color="#f8af18"/></linearGradient><clipPath id="sunrise__clip0_1858_7873"><rect width="128" height="128" fill="#fff"/></clipPath></defs></svg>