<svg xmlns="http://www.w3.org/2000/svg" fill="none" viewBox="0 0 128 128"><g id="sunset__sunset" clip-path="url(#sunset__clip0_1858_7881)"><g id="sunset__Horizon"><path id="sunset__Horizon_2" stroke="#202939" stroke-linecap="round" stroke-width="4" d="M37 91.986h16.746a6 6 0 0 1 3.95 1.485l4.329 3.787a3 3 0 0 0 3.95 0l4.328-3.787a6 6 0 0 1 3.951-1.485H91"/></g><g id="sunset__Mask group"><mask id="sunset__mask0_1858_7881" width="128" height="83" x="0" y="9" maskUnits="userSpaceOnUse" style="mask-type:alpha"><path id="sunset__Mask" fill="#000" d="M0 9h128v77H73.22a6 6 0 0 0-3.905 1.445L64 92l-5.315-4.555A6 6 0 0 0 54.781 86H0z"/></mask><g mask="url(#sunset__mask0_1858_7881)"><g id="sunset__Sun"><circle id="sunset__Core" cx="64" cy="82" r="19.5" fill="url(#sunset__paint0_linear_1858_7881)" stroke="#f8af18"/><g id="sunset__Rays"><path fill="#f8af18" d="M61 37a3 3 0 1 1 6 0v14a3 3 0 0 1-6 0zM93.699 48.059a3 3 0 1 1 4.242 4.243l-9.9 9.899a3 3 0 1 1-4.242-4.243zM109 79a3 3 0 1 1 0 6H95a3 3 0 1 1 0-6zM97.941 111.698a3 3 0 0 1-4.243 4.243l-9.899-9.899a3 3 0 0 1 4.243-4.243zM61 113a3 3 0 1 1 6 0v14a3 3 0 1 1-6 0zM39.958 101.799a3 3 0 1 1 4.243 4.243l-9.9 9.899a3 3 0 1 1-4.242-4.243zM33 79a3 3 0 1 1 0 6H19a3 3 0 0 1 0-6zM44.201 57.958a3 3 0 1 1-4.243 4.243l-9.9-9.9a3 3 0 1 1 4.243-4.242z"/><animateTransform attributeName="transform" begin="0s" dur="6s" repeatCount="indefinite" type="rotate" values="0 64.0 82.0;360 64.0 82.0"/></g></g></g></g></g><defs><linearGradient id="sunset__paint0_linear_1858_7881" x1="64" x2="64" y1="62" y2="102" gradientUnits="userSpaceOnUse"><stop stop-color="#fbbf24"/><stop offset="1" stop-color="#f8af18"/></linearGradient><clipPath id="sunset__clip0_1858_7881"><rect width="128" height="128" fill="#fff"/></clipPath></defs></svg>